<svg width="50" height="50" viewBox="0 0 50 50" xmlns="http://www.w3.org/2000/svg"><title>linkedin</title><g fill="none" fill-rule="evenodd"><path d="M0 0h50v50H0z"/><circle stroke="#F8A69B" cx="25" cy="25" r="25"/><path d="M16.166 12.37h4.093v14.265h-4.093V12.37zm1.942-1.784h-.03c-1.481 0-2.442-1.09-2.442-2.472 0-1.409.99-2.478 2.5-2.478s2.44 1.067 2.469 2.474c0 1.381-.958 2.476-2.497 2.476zm18.528 16.05h-4.64v-7.383c0-1.932-.727-3.25-2.323-3.25-1.222 0-1.9.889-2.217 1.748-.118.307-.1.736-.1 1.166v7.72h-4.598s.06-13.078 0-14.267h4.598v2.239c.272-.979 1.741-2.376 4.086-2.376 2.909 0 5.194 2.053 5.194 6.47v7.933z" fill="#F8A69B"/><text font-family="Montserrat-Bold, Montserrat" font-size="12" font-weight="bold" letter-spacing="1" fill="#F8A69B"><tspan x="17.942" y="41">Ga</tspan></text></g></svg>