<svg width="50" height="50" viewBox="0 0 50 50" xmlns="http://www.w3.org/2000/svg"><title>linkedin</title><g fill="none" fill-rule="evenodd"><path d="M0 0h50v50H0z"/><circle stroke="#F8A69B" cx="25" cy="25" r="25"/><path d="M16.53 12.37h4.093v14.265H16.53V12.37zm1.942-1.784h-.03c-1.481 0-2.442-1.09-2.442-2.472 0-1.409.989-2.478 2.5-2.478 1.51 0 2.439 1.067 2.468 2.474 0 1.381-.958 2.476-2.496 2.476zM37 26.636h-4.641v-7.383c0-1.932-.726-3.25-2.323-3.25-1.22 0-1.9.889-2.216 1.748-.119.307-.1.736-.1 1.166v7.72h-4.598s.06-13.078 0-14.267h4.598v2.239c.272-.979 1.74-2.376 4.086-2.376 2.909 0 5.194 2.053 5.194 6.47v7.933z" fill="#F8A69B"/><text font-family="Montserrat-Bold, Montserrat" font-size="12" font-weight="bold" letter-spacing="1" fill="#F8A69B"><tspan x="13.566" y="41">Bo</tspan> <tspan x="31.79" y="41">o</tspan></text></g></svg>