<svg width="50" height="50" viewBox="0 0 50 50" xmlns="http://www.w3.org/2000/svg"><title>linkedin</title><g fill="none" fill-rule="evenodd"><path d="M0 0h50v50H0z"/><circle stroke="#F8A69B" cx="25" cy="25" r="25"/><path d="M14.21 20.924h4.43v15.438h-4.43V20.924zm2.102-1.931h-.032c-1.604 0-2.644-1.18-2.644-2.675 0-1.525 1.07-2.682 2.706-2.682 1.635 0 2.64 1.154 2.672 2.678 0 1.494-1.037 2.679-2.702 2.679zm20.052 17.37H31.34v-7.99c0-2.091-.786-3.517-2.514-3.517-1.321 0-2.056.962-2.399 1.892-.128.331-.108.796-.108 1.261v8.355h-4.976s.064-14.154 0-15.44h4.976v2.423c.294-1.06 1.884-2.571 4.422-2.571 3.148 0 5.622 2.222 5.622 7.002v8.586z" fill="#F8A69B"/></g></svg>