<svg width="50" height="50" viewBox="0 0 50 50" xmlns="http://www.w3.org/2000/svg"><title>twitter</title><g fill="none" fill-rule="evenodd"><path d="M0 0h50v50H0z"/><circle stroke="#F8A69B" cx="25" cy="25" r="25"/><path d="M34.689 19.143a5.125 5.125 0 0 0 2.151-2.856 9.495 9.495 0 0 1-3.11 1.253c-.89-1.005-2.163-1.63-3.572-1.63-2.704 0-4.894 2.311-4.894 5.162 0 .405.04.8.124 1.176-4.067-.216-7.674-2.269-10.09-5.395a5.368 5.368 0 0 0-.663 2.597c0 1.79.864 3.371 2.178 4.3a4.72 4.72 0 0 1-2.219-.647v.064c0 2.503 1.687 4.59 3.93 5.063a4.557 4.557 0 0 1-1.292.181c-.315 0-.623-.03-.92-.091.622 2.05 2.43 3.545 4.573 3.585-1.677 1.386-3.788 2.21-6.08 2.21-.395 0-.786-.022-1.169-.07 2.167 1.463 4.74 2.319 7.505 2.319 9.007 0 13.929-7.868 13.929-14.692 0-.225-.003-.448-.013-.668A10.234 10.234 0 0 0 37.5 18.33a9.383 9.383 0 0 1-2.811.813z" fill="#F8A69B"/></g></svg>