<?xml version="1.0" encoding="UTF-8" standalone="no"?>
<svg width="50px" height="50px" viewBox="0 0 50 50" version="1.1" xmlns="http://www.w3.org/2000/svg" xmlns:xlink="http://www.w3.org/1999/xlink">
    <!-- Generator: Sketch 3.6.1 (26313) - http://www.bohemiancoding.com/sketch -->
    <title>linkedin</title>
    <desc>Created with Sketch.</desc>
    <defs></defs>
    <g id="Welcome" stroke="none" stroke-width="1" fill="none" fill-rule="evenodd">
        <g id="Desktop-HD-#parallax" transform="translate(-881.000000, -5549.000000)">
            <g id="footer" transform="translate(0.000000, 5474.000000)">
                <g id="linkedin" transform="translate(881.000000, 75.000000)">
                    <rect id="Rectangle" x="0" y="0" width="50" height="50"></rect>
                    <circle id="Oval" stroke="#F8A69B" cx="25" cy="25" r="25"></circle>
                    <path d="M16.1660555,12.3701324 L20.2591294,12.3701324 L20.2591294,26.635019 L16.1660555,26.635019 L16.1660555,12.3701324 Z M18.1082592,10.585845 L18.0786261,10.585845 C16.5969704,10.585845 15.6363636,9.49537247 15.6363636,8.11446583 C15.6363636,6.70532253 16.6253688,5.63636364 18.1366576,5.63636364 C19.6467117,5.63636364 20.5752159,6.70263333 20.6048491,8.11043202 C20.6048491,9.49133867 19.6467117,10.585845 18.1082592,10.585845 L18.1082592,10.585845 Z M36.6363636,26.6363636 L31.9950772,26.6363636 L31.9950772,19.253152 C31.9950772,17.3209583 31.2690659,16.003248 29.6725819,16.003248 C28.4514507,16.003248 27.7723585,16.8920302 27.4562719,17.7512311 C27.3377395,18.0578004 27.3562602,18.4867286 27.3562602,18.9170014 L27.3562602,26.6363636 L22.7581887,26.6363636 C22.7581887,26.6363636 22.8174549,13.5587609 22.7581887,12.3701324 L27.3562602,12.3701324 L27.3562602,14.6088953 C27.627897,13.6300248 29.0972056,12.2329829 31.4419257,12.2329829 C34.3509097,12.2329829 36.6363636,14.2861908 36.6363636,18.7032096 L36.6363636,26.6363636 L36.6363636,26.6363636 Z" id="Shape" fill="#F8A69B"></path>
                    <text id="Ga" font-family="Montserrat-Bold, Montserrat" font-size="12" font-weight="bold" letter-spacing="1" fill="#F8A69B">
                        <tspan x="17.942" y="41">Ga</tspan>
                    </text>
                </g>
            </g>
        </g>
    </g>
</svg>