<?xml version="1.0" encoding="UTF-8" standalone="no"?>
<svg width="50px" height="50px" viewBox="0 0 50 50" version="1.1" xmlns="http://www.w3.org/2000/svg" xmlns:xlink="http://www.w3.org/1999/xlink">
    <!-- Generator: Sketch 3.6.1 (26313) - http://www.bohemiancoding.com/sketch -->
    <title>linkedin</title>
    <desc>Created with Sketch.</desc>
    <defs></defs>
    <g id="Welcome" stroke="none" stroke-width="1" fill="none" fill-rule="evenodd">
        <g id="Desktop-HD-#parallax" transform="translate(-758.000000, -5549.000000)">
            <g id="footer" transform="translate(0.000000, 5474.000000)">
                <g id="linkedin" transform="translate(758.000000, 75.000000)">
                    <rect id="Rectangle" x="0" y="0" width="50" height="50"></rect>
                    <circle id="Oval" stroke="#F8A69B" cx="25" cy="25" r="25"></circle>
                    <path d="M16.5296919,12.3701324 L20.6227658,12.3701324 L20.6227658,26.635019 L16.5296919,26.635019 L16.5296919,12.3701324 Z M18.4718956,10.585845 L18.4422625,10.585845 C16.9606068,10.585845 16,9.49537247 16,8.11446583 C16,6.70532253 16.9890052,5.63636364 18.500294,5.63636364 C20.0103481,5.63636364 20.9388523,6.70263333 20.9684854,8.11043202 C20.9684854,9.49133867 20.0103481,10.585845 18.4718956,10.585845 L18.4718956,10.585845 Z M37,26.6363636 L32.3587135,26.6363636 L32.3587135,19.253152 C32.3587135,17.3209583 31.6327023,16.003248 30.0362183,16.003248 C28.815087,16.003248 28.1359948,16.8920302 27.8199083,17.7512311 C27.7013758,18.0578004 27.7198965,18.4867286 27.7198965,18.9170014 L27.7198965,26.6363636 L23.121825,26.6363636 C23.121825,26.6363636 23.1810913,13.5587609 23.121825,12.3701324 L27.7198965,12.3701324 L27.7198965,14.6088953 C27.9915334,13.6300248 29.460842,12.2329829 31.8055621,12.2329829 C34.7145461,12.2329829 37,14.2861908 37,18.7032096 L37,26.6363636 L37,26.6363636 Z" id="Shape" fill="#F8A69B"></path>
                    <text id="Boo" font-family="Montserrat-Bold, Montserrat" font-size="12" font-weight="bold" letter-spacing="1" fill="#F8A69B">
                        <tspan x="13.566" y="41">Bo</tspan>
                        <tspan x="31.79" y="41">o</tspan>
                    </text>
                </g>
            </g>
        </g>
    </g>
</svg>