<?xml version="1.0" encoding="UTF-8" standalone="no"?>
<svg width="50px" height="50px" viewBox="0 0 50 50" version="1.1" xmlns="http://www.w3.org/2000/svg" xmlns:xlink="http://www.w3.org/1999/xlink">
    <!-- Generator: Sketch 3.6.1 (26313) - http://www.bohemiancoding.com/sketch -->
    <title>twitter</title>
    <desc>Created with Sketch.</desc>
    <defs></defs>
    <g id="Welcome" stroke="none" stroke-width="1" fill="none" fill-rule="evenodd">
        <g id="Desktop-HD-#parallax" transform="translate(-639.000000, -5547.000000)">
            <g id="footer" transform="translate(0.000000, 5474.000000)">
                <g id="twitter" transform="translate(639.000000, 73.000000)">
                    <rect id="Rectangle" x="0" y="0" width="50" height="50"></rect>
                    <circle id="Oval" stroke="#F8A69B" cx="25" cy="25" r="25"></circle>
                    <path d="M34.6888056,19.1428768 C35.7001073,18.5046879 36.4760921,17.4927449 36.8402728,16.2872769 C35.8934031,16.8796699 34.8470842,17.3080837 33.7307304,17.5400181 C32.8398886,16.5354615 31.5666571,15.9090909 30.1575581,15.9090909 C27.4542173,15.9090909 25.2635307,18.2210484 25.2635307,21.0722165 C25.2635307,21.4769937 25.3041509,21.8714299 25.3881925,22.2481386 C21.320575,22.0324544 17.713786,19.9790225 15.2975876,16.8530787 C14.8759785,17.6183144 14.635059,18.5046879 14.635059,19.450153 C14.635059,21.2406274 15.4992876,22.8213268 16.8131393,23.7490644 C16.0105412,23.7224732 15.2555668,23.4875842 14.5944388,23.103489 L14.5944388,23.1670125 C14.5944388,25.6695403 16.2808753,27.7569498 18.5233876,28.2296824 C18.1115833,28.3508201 17.6801694,28.4113889 17.231947,28.4113889 C16.9167907,28.4113889 16.6086379,28.3803658 16.3116906,28.319797 C16.9335991,30.3702743 18.741896,31.8652909 20.8849589,31.9051777 C19.2083273,33.2908749 17.0974804,34.1152023 14.8045431,34.1152023 C14.4095471,34.1152023 14.0187533,34.093043 13.6363636,34.0442924 C15.8032384,35.508286 18.3763147,36.3636364 21.1412861,36.3636364 C30.1477533,36.3636364 35.0697946,28.4955944 35.0697946,21.6719959 C35.0697946,21.4474479 35.0669932,21.2243772 35.0571884,21.0042612 C36.0138629,20.2759576 36.8458756,19.3659475 37.5,18.3303678 C36.6217644,18.7410542 35.6776961,19.0187846 34.6888056,19.1428768 Z" id="Shape" fill="#F8A69B"></path>
                </g>
            </g>
        </g>
    </g>
</svg>